<svg id="Guides" fill="white" xmlns="http://www.w3.org/2000/svg" viewBox="0 0 125.73 175.72">
    <path d="M60.94,175.72c0-31.06-.38-61.71-.34-92.77a5.14,5.14,0,0,0-1.36-3.64q-8.4-9.74-16.65-19.62a5.43,5.43,0,0,1-1.16-3.12c-.11-5.18-.08-10.37,0-15.56A2.06,2.06,0,0,0,40,38.8a8.16,8.16,0,0,1-4.6-9.66,8.33,8.33,0,0,1,16.33,1.05,8.21,8.21,0,0,1-5.11,8.74,1.91,1.91,0,0,0-1.46,2.12c.08,4.87,0,9.75.06,14.63a3.13,3.13,0,0,0,.52,1.87c4.79,5.72,9.64,11.39,14.84,17.51V72.92q0-27.22,0-54.45A2.33,2.33,0,0,0,59,15.86a8.21,8.21,0,0,1-4.62-9.35,8.33,8.33,0,0,1,16.21-.23,8.13,8.13,0,0,1-4.35,9.47,2.74,2.74,0,0,0-1.84,3q.06,45.19,0,90.38v1.77l.35.1,5-7.45c3.2-4.76,6.43-9.5,9.57-14.3a5,5,0,0,0,.78-2.55c0-11.79,0-23.58,0-35.37A2.09,2.09,0,0,0,78.74,49a8.32,8.32,0,1,1,6.59,0,2.27,2.27,0,0,0-1.57,2.49q.06,18.15,0,36.3a6.2,6.2,0,0,1-1,3.24c-5.72,8.64-11.56,17.2-17.28,25.85a6.48,6.48,0,0,0-1,3.39c-.07,18.95.48,36.51.48,55.47ZM86.57,41.46A4.48,4.48,0,0,0,82,36.77a4.53,4.53,0,0,0-4.61,4.68,4.6,4.6,0,0,0,4.69,4.64A4.54,4.54,0,0,0,86.57,41.46ZM62.51,13A4.64,4.64,0,0,0,67.19,8.3a4.7,4.7,0,0,0-9.4,0A4.64,4.64,0,0,0,62.51,13ZM38.85,31.26a4.6,4.6,0,1,0,9.19,0,4.6,4.6,0,1,0-9.19,0Z"
          transform="translate(0 0)"/>
    <path d="M52.92,175.72c0-12.78-.23-24.05-.3-36.83A4.64,4.64,0,0,0,51.53,136Q32.29,116.08,12.92,96.31a2,2,0,0,0-2.36-.66A8.09,8.09,0,0,1,1,91.86a8.37,8.37,0,0,1,1.79-10.3A8.3,8.3,0,0,1,13,81a7.93,7.93,0,0,1,2.85,9.81c-.84,1.78-.41,2.65.8,3.88,8.75,9,17.43,18,26.13,27,.33.33.71.62,1.3,1.12,0-.87.11-1.46.11-2,0-9.75,0-19.5,0-29.26a5,5,0,0,0-1.2-3.07c-7.18-7.81-14.48-15.52-21.65-23.33-1-1.09-1.87-.78-2.95-.56A8.23,8.23,0,1,1,24.19,53c1.37,3,.92,5.88-1,8.74l8.29,8.9c5,5.36,10.06,10.68,15,16.11a5,5,0,0,1,1.21,3.07c.11,11.72.07,23.45.18,35.18a5.1,5.1,0,0,0,1.24,3c2,2.21,4.2,4.18,6.21,6.36.55.6,1.58,1.5,1.58,2.32.06,13.51,0,25.48,0,39ZM21,56.55a4.39,4.39,0,0,0-4.44-4.62,4.56,4.56,0,1,0-.1,9.11A4.35,4.35,0,0,0,21,56.55ZM12.6,87.78A4.64,4.64,0,0,0,8,83.21,4.6,4.6,0,0,0,8,92.41,4.65,4.65,0,0,0,12.6,87.78Z"
          transform="translate(0 0)"/>
    <path d="M68.94,175.72c.06-13.46-.28-25.41-.21-38.87a5.71,5.71,0,0,1,1-3c8.07-11.67,16.22-23.29,24.28-35a5.82,5.82,0,0,0,1-3c.1-5.06,0-10.13.1-15.19a6.13,6.13,0,0,1,1.1-3.14c1.43-2.09,3-4.06,4.64-6a2.33,2.33,0,0,0,.4-2.64,7.71,7.71,0,1,1,14.71-4.45,7.59,7.59,0,0,1-6.57,9.24c-1.52.18-3.13-.3-5-.52-1.56,2-3.3,4.2-4.9,6.46a4.08,4.08,0,0,0-.56,2.25c0,5.06,0,10.12-.08,15.18a6.74,6.74,0,0,1-1.15,3.54c-3.68,5.18-7.51,10.26-11.28,15.37-.36.49-.68,1-1.29,1.89h3.74c3.4,0,6.79.07,10.19-.06a3.25,3.25,0,0,0,2.21-1.17c3.58-5,7-10.14,10.59-15.17a2,2,0,0,0,.06-2.73,7.52,7.52,0,0,1,6.87-11.53,7.19,7.19,0,0,1,6.57,4.92,7.5,7.5,0,0,1-8.24,10,1.94,1.94,0,0,0-2.25,1c-3.8,5.55-7.66,11.06-11.44,16.62a3,3,0,0,1-2.86,1.51c-5.49-.07-11,0-16.48-.05a2.47,2.47,0,0,0-2.4,1.3c-2.65,4.15-5.42,8.24-8,12.44a6.79,6.79,0,0,0-1,3.41c-.08,12.9.39,24.45.4,37.36ZM112.5,66a4.23,4.23,0,1,0-4.15,4.3A4.22,4.22,0,0,0,112.5,66Zm9.63,28.77A4.05,4.05,0,0,0,118,90.49a4.29,4.29,0,0,0-4.15,4.16,4.17,4.17,0,0,0,4.25,4.18A3.92,3.92,0,0,0,122.13,94.73Z"
          transform="translate(0 0)"/>
</svg>